<svg version="1.1" id="Layer_1" xmlns="http://www.w3.org/2000/svg" xmlns:xlink="http://www.w3.org/1999/xlink" x="0px" y="0px"
	 width="100%" viewBox="0 0 511 512" enable-background="new 0 0 511 512" xml:space="preserve">
<path fill="#000000" opacity="1.000000" stroke="none" 
	d="
M356.000000,513.000000 
	C310.979095,513.000000 265.958221,513.000000 220.600784,512.691284 
	C220.847061,511.799896 221.332809,511.038422 222.027267,510.661285 
	C232.407425,505.024017 236.252747,496.158173 236.093750,484.590912 
	C235.777756,461.599030 235.916641,438.599243 236.039734,415.603638 
	C236.109894,402.494965 240.049194,390.583527 248.890198,380.764282 
	C256.787231,371.993408 259.422058,362.207947 255.069122,351.269318 
	C250.884247,340.752991 241.999619,336.813293 231.236572,334.915833 
	C216.524155,332.322083 201.679993,329.607788 187.496719,325.060120 
	C157.485474,315.437378 135.802795,296.158295 124.626564,266.090576 
	C119.483734,252.254700 117.037788,237.884628 115.653282,223.214371 
	C112.972984,194.813965 115.799271,167.755142 132.091187,143.219055 
	C142.351196,127.767189 145.586380,110.677528 143.225388,92.176392 
	C141.910538,81.872810 141.940002,71.354164 142.003189,60.936321 
	C142.035507,55.609447 143.262146,55.309486 148.211975,57.068890 
	C164.170197,62.741199 179.124268,70.407326 192.664978,80.538467 
	C201.771957,87.352295 211.297424,87.814667 221.992722,85.650673 
	C238.600739,82.290344 255.303116,78.582413 272.136841,77.336174 
	C299.652588,75.299118 327.087708,77.629707 353.785004,85.247192 
	C366.164368,88.779381 376.692841,86.549614 387.003296,78.728722 
	C399.790985,69.028801 414.304626,62.188206 429.399353,56.659473 
	C432.342133,55.581623 434.024048,56.163658 434.110352,59.389111 
	C434.327789,67.517662 435.516754,75.814774 434.335297,83.749336 
	C430.926056,106.645226 432.895996,127.961929 446.535278,147.715469 
	C454.137482,158.725616 458.561981,171.507385 460.003235,184.980820 
	C462.726471,210.438751 460.833710,235.586273 453.044403,260.019409 
	C443.872284,288.790131 426.097626,310.047607 397.650940,321.827972 
	C380.223419,329.045044 361.984161,332.542145 343.459473,334.957428 
	C335.666168,335.973480 328.960968,338.793152 324.257477,345.236816 
	C316.286652,356.156677 316.950684,368.056213 326.820465,379.970886 
	C336.116211,391.192566 340.075867,403.933380 340.023193,418.274872 
	C339.938080,441.437408 339.995575,464.600555 340.013123,487.763428 
	C340.020416,497.395294 344.242035,504.652100 352.388489,509.746613 
	C353.741394,510.592682 354.803497,511.903778 356.000000,513.000000 
z"/>
<path fill="#231F20" opacity="1.000000" stroke="none" 
	d="
M356.467590,513.000000 
	C354.803497,511.903778 353.741394,510.592682 352.388489,509.746613 
	C344.242035,504.652100 340.020416,497.395294 340.013123,487.763428 
	C339.995575,464.600555 339.938080,441.437408 340.023193,418.274872 
	C340.075867,403.933380 336.116211,391.192566 326.820465,379.970886 
	C316.950684,368.056213 316.286652,356.156677 324.257477,345.236816 
	C328.960968,338.793152 335.666168,335.973480 343.459473,334.957428 
	C361.984161,332.542145 380.223419,329.045044 397.650940,321.827972 
	C426.097626,310.047607 443.872284,288.790131 453.044403,260.019409 
	C460.833710,235.586273 462.726471,210.438751 460.003235,184.980820 
	C458.561981,171.507385 454.137482,158.725616 446.535278,147.715469 
	C432.895996,127.961929 430.926056,106.645226 434.335297,83.749336 
	C435.516754,75.814774 434.327789,67.517662 434.110352,59.389111 
	C434.024048,56.163658 432.342133,55.581623 429.399353,56.659473 
	C414.304626,62.188206 399.790985,69.028801 387.003296,78.728722 
	C376.692841,86.549614 366.164368,88.779381 353.785004,85.247192 
	C327.087708,77.629707 299.652588,75.299118 272.136841,77.336174 
	C255.303116,78.582413 238.600739,82.290344 221.992722,85.650673 
	C211.297424,87.814667 201.771957,87.352295 192.664978,80.538467 
	C179.124268,70.407326 164.170197,62.741199 148.211975,57.068890 
	C143.262146,55.309486 142.035507,55.609447 142.003189,60.936321 
	C141.940002,71.354164 141.910538,81.872810 143.225388,92.176392 
	C145.586380,110.677528 142.351196,127.767189 132.091187,143.219055 
	C115.799271,167.755142 112.972984,194.813965 115.653282,223.214371 
	C117.037788,237.884628 119.483734,252.254700 124.626564,266.090576 
	C135.802795,296.158295 157.485474,315.437378 187.496719,325.060120 
	C201.679993,329.607788 216.524155,332.322083 231.236572,334.915833 
	C241.999619,336.813293 250.884247,340.752991 255.069122,351.269318 
	C259.422058,362.207947 256.787231,371.993408 248.890198,380.764282 
	C240.049194,390.583527 236.109894,402.494965 236.039734,415.603638 
	C235.916641,438.599243 235.777756,461.599030 236.093750,484.590912 
	C236.252747,496.158173 232.407425,505.024017 222.027267,510.661285 
	C221.332809,511.038422 220.847061,511.799896 220.132126,512.691284 
	C213.978851,513.000000 207.957703,513.000000 201.336121,512.691345 
	C200.013260,511.708618 199.392349,510.849213 198.552673,510.389099 
	C190.137543,505.778076 185.582611,498.683502 184.767960,489.166046 
	C184.442017,485.358307 184.193115,481.543396 183.955978,477.728821 
	C183.790344,475.064484 183.027878,473.520569 179.761337,473.539337 
	C170.457840,473.592865 161.100632,473.824249 151.856186,472.980988 
	C111.456894,469.295959 78.149414,451.271210 51.229034,421.394897 
	C41.561600,410.665924 30.352470,402.586365 17.628599,396.035339 
	C12.775215,393.536530 8.793850,389.282837 4.578218,385.640106 
	C3.130154,384.388885 2.178459,382.563232 1.000000,381.000000 
	C1.000000,374.978851 1.000000,368.957703 1.308386,362.337952 
	C2.562138,360.598816 3.608408,359.526855 4.437211,358.307068 
	C12.367492,346.635773 24.437229,342.958862 37.660194,348.291412 
	C53.303009,354.599823 67.095879,363.699341 79.108978,375.568390 
	C87.042397,383.406647 94.970245,391.275543 103.294495,398.688354 
	C124.708641,417.757721 149.647232,425.373444 178.174957,421.216675 
	C182.694748,420.558075 183.709198,418.474701 184.094910,414.360748 
	C185.007492,404.627594 186.306107,394.916077 187.891266,385.268524 
	C188.431885,381.978302 187.937897,380.339142 184.682999,379.331177 
	C177.688400,377.165222 170.659637,375.035309 163.842545,372.382629 
	C123.199615,356.567413 93.609566,329.192352 77.026497,288.487091 
	C65.536377,260.283081 61.842007,230.772125 61.881378,200.483414 
	C61.919716,170.981552 69.652496,143.976395 85.238228,119.041763 
	C89.054657,112.936096 91.833771,106.667053 90.385132,98.819595 
	C85.464317,72.163010 88.207741,46.129532 97.899452,20.794781 
	C100.758865,13.320083 105.017204,7.325575 112.652901,4.112437 
	C114.254845,3.438335 115.558754,2.055985 117.000000,0.999998 
	C125.354233,1.000000 133.708466,1.000000 142.729309,1.295589 
	C144.256668,2.056110 145.067581,2.759277 145.985397,2.951181 
	C169.827255,7.936212 191.033203,18.883961 211.537048,31.546093 
	C213.527374,32.775215 216.582031,32.998390 219.012329,32.683350 
	C237.464981,30.291325 255.813736,26.577808 274.332672,25.342821 
	C300.148560,23.621220 325.882202,26.258421 351.165161,31.957251 
	C357.133240,33.302467 361.963593,32.694569 367.131073,29.373215 
	C385.591705,17.507822 405.270782,8.284060 426.758423,3.227238 
	C428.263641,2.873008 429.590302,1.760109 431.000000,1.000001 
	C439.354218,1.000000 447.708466,1.000000 456.694122,1.299533 
	C458.585205,2.361917 459.762726,3.345589 461.118500,3.850037 
	C467.569275,6.250194 472.172760,10.666310 474.841766,16.874941 
	C484.843903,40.141876 488.368103,64.514648 485.160370,89.529259 
	C483.668274,101.164955 483.825928,111.472626 490.691925,121.774673 
	C500.262817,136.135178 505.926178,152.340714 509.202301,169.341553 
	C509.648071,171.654831 511.044006,173.785034 512.000000,176.000000 
	C512.000000,194.687561 512.000000,213.375122 511.703613,232.748993 
	C510.932068,234.811951 510.333618,236.159531 510.000824,237.569794 
	C506.568909,252.114212 504.078827,266.952972 499.586731,281.159729 
	C490.942352,308.498627 474.931824,331.168823 452.361725,348.956177 
	C434.315948,363.177979 413.840302,372.522003 391.595306,378.091095 
	C385.074158,379.723694 385.028961,380.138062 386.326904,386.616241 
	C387.761292,393.775665 389.696991,401.003845 389.812927,408.227814 
	C390.232330,434.361145 390.025940,460.505371 389.955383,486.645233 
	C389.929749,496.150879 385.797668,503.583099 377.977203,509.005493 
	C376.233307,510.214630 374.654724,511.662231 373.000000,513.000000 
	C367.645081,513.000000 362.290131,513.000000 356.467590,513.000000 
z"/>
<path fill="#000000" opacity="1.000000" stroke="none" 
	d="
M116.531342,0.999998 
	C115.558754,2.055985 114.254845,3.438335 112.652901,4.112437 
	C105.017204,7.325575 100.758865,13.320083 97.899452,20.794781 
	C88.207741,46.129532 85.464317,72.163010 90.385132,98.819595 
	C91.833771,106.667053 89.054657,112.936096 85.238228,119.041763 
	C69.652496,143.976395 61.919716,170.981552 61.881378,200.483414 
	C61.842007,230.772125 65.536377,260.283081 77.026497,288.487091 
	C93.609566,329.192352 123.199615,356.567413 163.842545,372.382629 
	C170.659637,375.035309 177.688400,377.165222 184.682999,379.331177 
	C187.937897,380.339142 188.431885,381.978302 187.891266,385.268524 
	C186.306107,394.916077 185.007492,404.627594 184.094910,414.360748 
	C183.709198,418.474701 182.694748,420.558075 178.174957,421.216675 
	C149.647232,425.373444 124.708641,417.757721 103.294495,398.688354 
	C94.970245,391.275543 87.042397,383.406647 79.108978,375.568390 
	C67.095879,363.699341 53.303009,354.599823 37.660194,348.291412 
	C24.437229,342.958862 12.367492,346.635773 4.437211,358.307068 
	C3.608408,359.526855 2.562138,360.598816 1.308386,361.869690 
	C1.000000,241.777084 1.000000,121.554169 1.000000,1.000000 
	C39.353592,1.000000 77.708138,1.000000 116.531342,0.999998 
z"/>
<path fill="#000000" opacity="1.000000" stroke="none" 
	d="
M373.468658,513.000000 
	C374.654724,511.662231 376.233307,510.214630 377.977203,509.005493 
	C385.797668,503.583099 389.929749,496.150879 389.955383,486.645233 
	C390.025940,460.505371 390.232330,434.361145 389.812927,408.227814 
	C389.696991,401.003845 387.761292,393.775665 386.326904,386.616241 
	C385.028961,380.138062 385.074158,379.723694 391.595306,378.091095 
	C413.840302,372.522003 434.315948,363.177979 452.361725,348.956177 
	C474.931824,331.168823 490.942352,308.498627 499.586731,281.159729 
	C504.078827,266.952972 506.568909,252.114212 510.000824,237.569794 
	C510.333618,236.159531 510.932068,234.811951 511.703613,233.217651 
	C512.000000,326.235809 512.000000,419.471588 512.000000,513.000000 
	C465.979523,513.000000 419.958405,513.000000 373.468658,513.000000 
z"/>
<path fill="#000000" opacity="1.000000" stroke="none" 
	d="
M1.000000,381.468658 
	C2.178459,382.563232 3.130154,384.388885 4.578218,385.640106 
	C8.793850,389.282837 12.775215,393.536530 17.628599,396.035339 
	C30.352470,402.586365 41.561600,410.665924 51.229034,421.394897 
	C78.149414,451.271210 111.456894,469.295959 151.856186,472.980988 
	C161.100632,473.824249 170.457840,473.592865 179.761337,473.539337 
	C183.027878,473.520569 183.790344,475.064484 183.955978,477.728821 
	C184.193115,481.543396 184.442017,485.358307 184.767960,489.166046 
	C185.582611,498.683502 190.137543,505.778076 198.552673,510.389099 
	C199.392349,510.849213 200.013260,511.708618 200.867859,512.691345 
	C134.421280,513.000000 67.842567,513.000000 1.000000,513.000000 
	C1.000000,469.312805 1.000000,425.625061 1.000000,381.468658 
z"/>
<path fill="#000000" opacity="1.000000" stroke="none" 
	d="
M430.531342,1.000001 
	C429.590302,1.760109 428.263641,2.873008 426.758423,3.227238 
	C405.270782,8.284060 385.591705,17.507822 367.131073,29.373215 
	C361.963593,32.694569 357.133240,33.302467 351.165161,31.957251 
	C325.882202,26.258421 300.148560,23.621220 274.332672,25.342821 
	C255.813736,26.577808 237.464981,30.291325 219.012329,32.683350 
	C216.582031,32.998390 213.527374,32.775215 211.537048,31.546093 
	C191.033203,18.883961 169.827255,7.936212 145.985397,2.951181 
	C145.067581,2.759277 144.256668,2.056110 143.197968,1.295589 
	C238.687561,1.000000 334.375122,1.000000 430.531342,1.000001 
z"/>
<path fill="#000000" opacity="1.000000" stroke="none" 
	d="
M512.000000,175.531342 
	C511.044006,173.785034 509.648071,171.654831 509.202301,169.341553 
	C505.926178,152.340714 500.262817,136.135178 490.691925,121.774673 
	C483.825928,111.472626 483.668274,101.164955 485.160370,89.529259 
	C488.368103,64.514648 484.843903,40.141876 474.841766,16.874941 
	C472.172760,10.666310 467.569275,6.250194 461.118500,3.850037 
	C459.762726,3.345589 458.585205,2.361917 457.162781,1.299533 
	C475.298401,1.000000 493.596802,1.000000 512.000000,1.000000 
	C512.000000,59.020855 512.000000,117.041771 512.000000,175.531342 
z"/>
</svg>